<mxfile host="Electron" modified="2023-07-11T10:17:21.293Z" agent="Mozilla/5.0 (Macintosh; Intel Mac OS X 10_15_7) AppleWebKit/537.36 (KHTML, like Gecko) draw.io/21.6.1 Chrome/112.0.5615.204 Electron/24.6.1 Safari/537.36" etag="bLToyZsqmSmbwvWUS9OX" version="21.6.1" type="device">
  <diagram name="第 1 页" id="28R8Vp0obcBbabA1OUA-">
    <mxGraphModel dx="444" dy="329" grid="1" gridSize="10" guides="1" tooltips="1" connect="1" arrows="1" fold="1" page="1" pageScale="1" pageWidth="827" pageHeight="1169" math="0" shadow="0">
      <root>
        <mxCell id="0" />
        <mxCell id="1" parent="0" />
        <mxCell id="19LTwzcGFatKmtq9VPBL-9" value="" style="shape=umlLifeline;perimeter=lifelinePerimeter;whiteSpace=wrap;html=1;container=1;dropTarget=0;collapsible=0;recursiveResize=0;outlineConnect=0;portConstraint=eastwest;newEdgeStyle={&quot;edgeStyle&quot;:&quot;elbowEdgeStyle&quot;,&quot;elbow&quot;:&quot;vertical&quot;,&quot;curved&quot;:0,&quot;rounded&quot;:0};participant=umlActor;" parent="1" vertex="1">
          <mxGeometry x="210" y="200" width="20" height="300" as="geometry" />
        </mxCell>
        <mxCell id="19LTwzcGFatKmtq9VPBL-12" value="" style="html=1;points=[];perimeter=orthogonalPerimeter;outlineConnect=0;targetShapes=umlLifeline;portConstraint=eastwest;newEdgeStyle={&quot;edgeStyle&quot;:&quot;elbowEdgeStyle&quot;,&quot;elbow&quot;:&quot;vertical&quot;,&quot;curved&quot;:0,&quot;rounded&quot;:0};" parent="19LTwzcGFatKmtq9VPBL-9" vertex="1">
          <mxGeometry x="5" y="90" width="10" height="80" as="geometry" />
        </mxCell>
        <mxCell id="19LTwzcGFatKmtq9VPBL-19" value="" style="html=1;points=[];perimeter=orthogonalPerimeter;outlineConnect=0;targetShapes=umlLifeline;portConstraint=eastwest;newEdgeStyle={&quot;edgeStyle&quot;:&quot;elbowEdgeStyle&quot;,&quot;elbow&quot;:&quot;vertical&quot;,&quot;curved&quot;:0,&quot;rounded&quot;:0};" parent="19LTwzcGFatKmtq9VPBL-9" vertex="1">
          <mxGeometry x="5" y="190" width="10" height="100" as="geometry" />
        </mxCell>
        <mxCell id="19LTwzcGFatKmtq9VPBL-10" value="网站A（信任）" style="shape=umlLifeline;perimeter=lifelinePerimeter;whiteSpace=wrap;html=1;container=1;dropTarget=0;collapsible=0;recursiveResize=0;outlineConnect=0;portConstraint=eastwest;newEdgeStyle={&quot;edgeStyle&quot;:&quot;elbowEdgeStyle&quot;,&quot;elbow&quot;:&quot;vertical&quot;,&quot;curved&quot;:0,&quot;rounded&quot;:0};" parent="1" vertex="1">
          <mxGeometry x="280" y="200" width="100" height="300" as="geometry" />
        </mxCell>
        <mxCell id="19LTwzcGFatKmtq9VPBL-13" value="" style="html=1;points=[];perimeter=orthogonalPerimeter;outlineConnect=0;targetShapes=umlLifeline;portConstraint=eastwest;newEdgeStyle={&quot;edgeStyle&quot;:&quot;elbowEdgeStyle&quot;,&quot;elbow&quot;:&quot;vertical&quot;,&quot;curved&quot;:0,&quot;rounded&quot;:0};" parent="19LTwzcGFatKmtq9VPBL-10" vertex="1">
          <mxGeometry x="45" y="90" width="10" height="80" as="geometry" />
        </mxCell>
        <mxCell id="19LTwzcGFatKmtq9VPBL-16" value="验证登录，把SessionId&lt;br&gt;放到Cookie中" style="html=1;align=left;spacingLeft=2;endArrow=block;rounded=0;edgeStyle=orthogonalEdgeStyle;curved=0;rounded=0;" parent="19LTwzcGFatKmtq9VPBL-10" source="19LTwzcGFatKmtq9VPBL-13" target="19LTwzcGFatKmtq9VPBL-13" edge="1">
          <mxGeometry relative="1" as="geometry">
            <mxPoint x="60" y="110" as="sourcePoint" />
            <Array as="points">
              <mxPoint x="70" y="110" />
              <mxPoint x="70" y="140" />
            </Array>
            <mxPoint x="65" y="139.9999999999999" as="targetPoint" />
          </mxGeometry>
        </mxCell>
        <mxCell id="19LTwzcGFatKmtq9VPBL-24" value="" style="html=1;points=[];perimeter=orthogonalPerimeter;outlineConnect=0;targetShapes=umlLifeline;portConstraint=eastwest;newEdgeStyle={&quot;edgeStyle&quot;:&quot;elbowEdgeStyle&quot;,&quot;elbow&quot;:&quot;vertical&quot;,&quot;curved&quot;:0,&quot;rounded&quot;:0};" parent="19LTwzcGFatKmtq9VPBL-10" vertex="1">
          <mxGeometry x="45" y="210" width="10" height="80" as="geometry" />
        </mxCell>
        <mxCell id="19LTwzcGFatKmtq9VPBL-11" value="网站B（非信任）" style="shape=umlLifeline;perimeter=lifelinePerimeter;whiteSpace=wrap;html=1;container=1;dropTarget=0;collapsible=0;recursiveResize=0;outlineConnect=0;portConstraint=eastwest;newEdgeStyle={&quot;edgeStyle&quot;:&quot;elbowEdgeStyle&quot;,&quot;elbow&quot;:&quot;vertical&quot;,&quot;curved&quot;:0,&quot;rounded&quot;:0};" parent="1" vertex="1">
          <mxGeometry x="440" y="200" width="100" height="300" as="geometry" />
        </mxCell>
        <mxCell id="19LTwzcGFatKmtq9VPBL-20" value="" style="html=1;points=[];perimeter=orthogonalPerimeter;outlineConnect=0;targetShapes=umlLifeline;portConstraint=eastwest;newEdgeStyle={&quot;edgeStyle&quot;:&quot;elbowEdgeStyle&quot;,&quot;elbow&quot;:&quot;vertical&quot;,&quot;curved&quot;:0,&quot;rounded&quot;:0};" parent="19LTwzcGFatKmtq9VPBL-11" vertex="1">
          <mxGeometry x="45" y="190" width="10" height="60" as="geometry" />
        </mxCell>
        <mxCell id="19LTwzcGFatKmtq9VPBL-14" value="登录" style="html=1;verticalAlign=bottom;startArrow=oval;startFill=1;endArrow=block;startSize=8;edgeStyle=elbowEdgeStyle;elbow=vertical;curved=0;rounded=0;" parent="1" target="19LTwzcGFatKmtq9VPBL-13" edge="1">
          <mxGeometry width="60" relative="1" as="geometry">
            <mxPoint x="230" y="310" as="sourcePoint" />
            <mxPoint x="290" y="310" as="targetPoint" />
          </mxGeometry>
        </mxCell>
        <mxCell id="19LTwzcGFatKmtq9VPBL-18" value="登录成功" style="html=1;verticalAlign=bottom;endArrow=open;dashed=1;endSize=8;edgeStyle=elbowEdgeStyle;elbow=vertical;curved=0;rounded=0;" parent="1" source="19LTwzcGFatKmtq9VPBL-13" target="19LTwzcGFatKmtq9VPBL-12" edge="1">
          <mxGeometry relative="1" as="geometry">
            <mxPoint x="309.5" y="349.76238095238097" as="sourcePoint" />
            <mxPoint x="230" y="349.81" as="targetPoint" />
            <Array as="points">
              <mxPoint x="250" y="350" />
            </Array>
          </mxGeometry>
        </mxCell>
        <mxCell id="19LTwzcGFatKmtq9VPBL-22" value="不登出网站A，进入网站B" style="html=1;verticalAlign=bottom;endArrow=block;edgeStyle=elbowEdgeStyle;elbow=vertical;curved=0;rounded=0;jumpStyle=none;" parent="1" source="19LTwzcGFatKmtq9VPBL-19" target="19LTwzcGFatKmtq9VPBL-20" edge="1">
          <mxGeometry width="80" relative="1" as="geometry">
            <mxPoint x="230" y="400.002380952381" as="sourcePoint" />
            <mxPoint x="490" y="400.002380952381" as="targetPoint" />
            <Array as="points">
              <mxPoint x="480" y="400" />
            </Array>
          </mxGeometry>
        </mxCell>
        <mxCell id="19LTwzcGFatKmtq9VPBL-23" value="引导用户点击链接（或者直接用&amp;lt;img&amp;gt;指向），&lt;br&gt;跳转到 www.网站A.com/api/操作" style="html=1;align=left;spacingLeft=2;endArrow=block;rounded=0;edgeStyle=orthogonalEdgeStyle;curved=0;rounded=0;" parent="1" edge="1">
          <mxGeometry relative="1" as="geometry">
            <mxPoint x="495" y="400" as="sourcePoint" />
            <Array as="points">
              <mxPoint x="510" y="400" />
              <mxPoint x="510" y="430" />
            </Array>
            <mxPoint x="495" y="430" as="targetPoint" />
          </mxGeometry>
        </mxCell>
        <mxCell id="19LTwzcGFatKmtq9VPBL-25" value="发出请求" style="html=1;verticalAlign=bottom;endArrow=open;dashed=1;endSize=8;edgeStyle=elbowEdgeStyle;elbow=vertical;curved=0;rounded=0;" parent="1" edge="1">
          <mxGeometry relative="1" as="geometry">
            <mxPoint x="485" y="419.9987234042553" as="sourcePoint" />
            <mxPoint x="335" y="419.9987234042553" as="targetPoint" />
          </mxGeometry>
        </mxCell>
        <mxCell id="19LTwzcGFatKmtq9VPBL-26" value="校验登录态，&lt;br&gt;执行API操作" style="html=1;align=left;spacingLeft=2;endArrow=block;rounded=0;edgeStyle=orthogonalEdgeStyle;curved=0;rounded=0;" parent="1" edge="1">
          <mxGeometry relative="1" as="geometry">
            <mxPoint x="336" y="430" as="sourcePoint" />
            <Array as="points">
              <mxPoint x="351" y="430" />
              <mxPoint x="351" y="460" />
            </Array>
            <mxPoint x="336" y="460" as="targetPoint" />
          </mxGeometry>
        </mxCell>
        <mxCell id="19LTwzcGFatKmtq9VPBL-27" value="返回API操作&lt;br&gt;成功的响应" style="html=1;verticalAlign=bottom;endArrow=open;dashed=1;endSize=8;edgeStyle=elbowEdgeStyle;elbow=vertical;curved=0;rounded=0;" parent="1" edge="1">
          <mxGeometry x="0.0044" relative="1" as="geometry">
            <mxPoint x="324.99999999999994" y="480.00087378640774" as="sourcePoint" />
            <mxPoint x="225" y="480.00087378640774" as="targetPoint" />
            <mxPoint as="offset" />
          </mxGeometry>
        </mxCell>
      </root>
    </mxGraphModel>
  </diagram>
</mxfile>
